<?xml version="1.0" encoding="utf-8"?>
<!-- Generator: Adobe Illustrator 18.0.0, SVG Export Plug-In . SVG Version: 6.00 Build 0)  -->
<!DOCTYPE svg PUBLIC "-//W3C//DTD SVG 1.1//EN" "http://www.w3.org/Graphics/SVG/1.1/DTD/svg11.dtd">
<svg version="1.1" id="Layer_1" xmlns="http://www.w3.org/2000/svg" xmlns:xlink="http://www.w3.org/1999/xlink" x="0px" y="0px"
	 viewBox="0 0 273.5 605.8" enable-background="new 0 0 273.5 605.8" xml:space="preserve">
<path id="favorite-3-icon" fill="#9D3E8B" d="M136,400.1C59.8,326,38.4,298.7,33.8,270.7c-5.7-34.2,19.8-68.3,59.5-68.3
	c17,0,32.5,6.5,42.8,17.4c10.3-10.9,25.8-17.4,42.8-17.4c39.5,0,65.2,34,59.5,68.3C233.7,298.1,213.7,324.5,136,400.1z M93.2,222.5
	c-16,0-29.5,8.1-36.1,21.6c-16.9,34.6,21.2,69.7,78.9,127.6c58-58.1,95.8-93.1,78.9-127.6c-6.6-13.5-20.1-21.6-36.1-21.6
	c-25.8,0-36.8,20.3-42.8,29.9C130.4,243.4,120.4,222.5,93.2,222.5z"/>
<path id="email-4-icon" fill="#9D3E8B" d="M33,436.4v153h206.1v-153H33z M214.7,456.4l-78.9,65.2l-78.7-65.2H214.7z M219,569.3H53
	v-89l82.8,68.6l83.2-68.8V569.3z"/>
<path id="eye-6-icon" fill="#9D3E8B" d="M136.3,151.2c-45.1,0-86.2-31.1-111.9-68.8C50.3,46,91.4,21,136.3,21
	c45,0,86.2,24.6,111.4,61.2C223.8,122.1,182.8,151.2,136.3,151.2z M48,82.7c21.6,26.6,53.4,49.5,88.3,49.5
	c47.5,0,78.3-35.6,88.4-49.3c-21.4-25.2-53-43-88.4-43C90.3,40,59,70.2,48,82.7z M137.3,48.5c-20.8,0-37.6,16.8-37.6,37.6
	s16.8,37.6,37.6,37.6s37.6-16.8,37.6-37.6S158,48.5,137.3,48.5z M137.2,86.1c-5.3,5.3-13.9,5.3-19.2,0c-5.3-5.3-5.3-13.9,0-19.2
	c5.3-5.3,13.9-5.3,19.2,0C142.6,72.2,142.6,80.8,137.2,86.1z"/>
</svg>
