<?xml version="1.0" encoding="utf-8"?>
<!-- Generator: Adobe Illustrator 16.0.4, SVG Export Plug-In . SVG Version: 6.00 Build 0)  -->
<!DOCTYPE svg PUBLIC "-//W3C//DTD SVG 1.1//EN" "http://www.w3.org/Graphics/SVG/1.1/DTD/svg11.dtd">
<svg version="1.1" id="Layer_1" xmlns="http://www.w3.org/2000/svg" xmlns:xlink="http://www.w3.org/1999/xlink" x="0px" y="0px"
	 width="1440px" height="576px" viewBox="0 0 1440 576" enable-background="new 0 0 1440 576" xml:space="preserve">
<rect y="-1.897" fill="#D3D3D3" width="1440" height="578.971"/>
<polygon opacity="0.3" fill="#999999" enable-background="new    " points="766.771,36.714 1307.131,577.073 116.733,577.073 
	9.166,469.657 188.112,447.609 546.594,176.594 746.084,110.597 "/>
<path fill="#E8EAEF" d="M597.899,455.82c5.481,0.4,6.701-2.272,4.557-4.004c-2.144-1.731-20.392-10.401-27.894-18.624
	c-5.435-5.956-6.924-55.46-6.924-55.46c0-1.719-1.393-3.109-3.11-3.109H457.95c-1.718,0-3.111,1.392-3.111,3.109
	c0,0-1.491,49.504-6.924,55.46c-7.502,8.223-25.75,16.893-27.894,18.624c-2.145,1.73,1.132,4.004,4.559,4.004H597.899z"/>
<path fill="#C4C4C4" d="M454.255,390.711c-0.22,3.938-0.509,8.437-0.881,13.009h115.729c-0.371-4.572-0.661-9.071-0.881-13.009
	H454.255z"/>
<g>
	<g>
		<path fill="#010101" d="M255.92,397.844c-4.015,0-7.282-3.267-7.282-7.282V43.819c0-4.015,3.267-7.282,7.282-7.282h510.852
			c4.017,0,7.282,3.267,7.282,7.282v346.744c0,4.016-3.267,7.281-7.282,7.281H255.92L255.92,397.844z"/>
	</g>
	<g>
		<path fill="#484F5E" d="M248.815,43.819c0-3.907,3.197-7.104,7.104-7.104h510.853c3.907,0,7.104,3.197,7.104,7.104v346.744
			c0,3.907-3.196,7.104-7.104,7.104H255.92c-3.908,0-7.104-3.196-7.104-7.104L248.815,43.819L248.815,43.819z"/>
	</g>
	<path fill="#808080" d="M766.771,36.359H255.92c-4.113,0-7.46,3.346-7.46,7.459v346.743c0,4.113,3.347,7.461,7.46,7.461h510.852
		c4.113,0,7.461-3.348,7.461-7.461V43.819C774.23,39.706,770.885,36.359,766.771,36.359z M773.876,390.562
		c0,3.907-3.196,7.104-7.104,7.104H255.92c-3.908,0-7.104-3.196-7.104-7.104V43.819c0-3.907,3.197-7.104,7.104-7.104h510.852
		c3.908,0,7.104,3.197,7.104,7.104V390.562z"/>
</g>
<polygon fill="#FFFFFF" points="488.661,55.186 448.604,55.186 263.684,55.186 263.684,97.573 263.684,251.159 263.684,380.344 
	757.686,380.344 757.686,251.159 757.686,97.573 757.686,55.186 "/>
<g>
	<g>
		<path fill="#484F5E" d="M631.884,474.151c-3.43,0-6.22-2.789-6.22-6.22V225.41c0-3.429,2.79-6.219,6.22-6.219h188.377
			c3.429,0,6.22,2.79,6.22,6.219v242.521c0,3.431-2.791,6.22-6.22,6.22H631.884z"/>
		<path fill="#808080" d="M820.261,219.014H631.884c-3.526,0-6.396,2.87-6.396,6.396v242.521c0,3.527,2.869,6.396,6.396,6.396
			h188.377c3.527,0,6.396-2.869,6.396-6.396V225.41C826.657,221.883,823.788,219.014,820.261,219.014z M826.302,467.933
			c0,3.322-2.718,6.042-6.041,6.042H631.884c-3.323,0-6.042-2.72-6.042-6.042V225.41c0-3.322,2.719-6.041,6.042-6.041h188.377
			c3.323,0,6.041,2.719,6.041,6.041V467.933z"/>
	</g>
</g>
<polygon fill="#FFFFFF" points="732.251,246.141 732.251,246.029 710.667,246.029 710.667,246.141 642.888,246.141 642.888,268.443 
	642.888,363.604 642.888,447.609 809.257,447.609 809.257,363.604 809.257,268.443 809.257,246.141 "/>
<g>
	<g>
		<path fill="#FFFFFF" d="M726.082,458.433c0,0.002,0,0,0.005,0.002c0.017,0,0.035,0.006,0.055,0.023
			c0.321,0.324,0.646,0.652,0.975,0.977c0-0.14,0-0.275,0-0.415c0-0.045,0.034-0.082,0.078-0.082c0.178,0,0.351,0,0.527,0
			c0.045,0,0.082,0.037,0.082,0.082c0,0.243,0,0.485,0,0.73c0,0.118,0,0.239,0,0.36c0,0.01-0.002,0.014-0.002,0.019
			c0.008,0.005,0.02,0.016,0.036,0.033c0.335,0.335,0.669,0.671,1.002,1.007c0.052,0.05,0.016,0.138-0.056,0.138
			c-0.184,0-0.37,0-0.556,0c0,0.571,0,1.14,0,1.712c0,0.045-0.035,0.079-0.08,0.079c-0.576,0-1.098,0-1.675,0
			c-0.045,0-0.079-0.034-0.079-0.079c0-0.399,0-0.798,0-1.197c-0.174,0-0.453,0-0.623,0c0,0.399,0,0.798,0,1.197
			c0,0.045-0.037,0.079-0.08,0.079c-0.577,0-1.101,0-1.677,0c-0.043,0-0.079-0.034-0.079-0.079c0-0.572,0-1.141,0-1.712
			c-0.188,0-0.373,0-0.557,0c-0.07,0-0.105-0.088-0.057-0.138c0.901-0.905,1.803-1.811,2.703-2.711
			c0.017-0.019,0.032-0.023,0.054-0.023C726.08,458.433,726.082,458.435,726.082,458.433z M726.082,457.923l-0.098,0.026
			c-0.115,0.02-0.223,0.076-0.309,0.162l-1.357,1.359l-1.345,1.351c-0.163,0.163-0.212,0.41-0.122,0.625
			c0.09,0.214,0.297,0.353,0.527,0.353h0.064v1.22c0,0.316,0.258,0.572,0.57,0.572h1.676c0.15,0,0.289-0.059,0.392-0.155
			c0.103,0.098,0.241,0.155,0.393,0.155h1.675c0.314,0,0.571-0.256,0.571-0.572v-1.22h0.063c0.232,0,0.439-0.139,0.529-0.353
			c0.086-0.215,0.039-0.462-0.125-0.625l-0.894-0.896v-0.175v-0.731c0-0.316-0.256-0.572-0.574-0.572h-0.527
			c-0.105,0-0.206,0.027-0.29,0.081l-0.416-0.415c-0.08-0.081-0.178-0.137-0.288-0.159l-0.034-0.011h-0.014L726.082,457.923
			L726.082,457.923z"/>
	</g>
	<g>
		<g>
			<path fill="#FFFFFF" d="M762.771,462.026c-0.179,0-0.321-0.143-0.321-0.321v-0.414c0-1.009-0.819-1.831-1.831-1.831h-2.895
				c-1.01,0-1.83,0.822-1.83,1.831v0.414c0,0.18-0.145,0.321-0.322,0.321c-0.176,0-0.32-0.143-0.32-0.321v-0.414
				c0-1.362,1.108-2.473,2.475-2.473h2.894c1.365,0,2.476,1.109,2.476,2.473v0.414C763.095,461.885,762.95,462.026,762.771,462.026
				L762.771,462.026z"/>
		</g>
		<g>
			<path fill="#FFFFFF" d="M759.348,463.003c-0.778,0-1.412-0.633-1.412-1.412c0-0.782,0.634-1.413,1.412-1.413
				c0.78,0,1.414,0.631,1.414,1.413C760.762,462.37,760.128,463.003,759.348,463.003L759.348,463.003z M759.348,460.653
				c-0.515,0-0.937,0.421-0.937,0.938c0,0.516,0.422,0.938,0.937,0.938c0.519,0,0.938-0.422,0.938-0.938
				C760.284,461.074,759.865,460.653,759.348,460.653L759.348,460.653z"/>
			<path fill="#FFFFFF" d="M759.348,462.292c-0.113,0-0.211-0.093-0.211-0.208v-0.987c0-0.114,0.098-0.211,0.211-0.211
				c0.115,0,0.213,0.097,0.213,0.211v0.987C759.561,462.199,759.463,462.292,759.348,462.292L759.348,462.292z"/>
		</g>
	</g>
	<g>
		<path fill="#FFFFFF" d="M696.57,462.026c-0.181,0-0.322-0.146-0.322-0.322v-0.413c0-1.01-0.82-1.831-1.831-1.831h-2.894
			c-1.011,0-1.83,0.821-1.83,1.831v0.413c0,0.178-0.147,0.322-0.323,0.322c-0.178,0-0.32-0.146-0.32-0.322v-0.413
			c0-1.363,1.109-2.473,2.476-2.473h2.893c1.362,0,2.475,1.108,2.475,2.473v0.413C696.893,461.882,696.749,462.026,696.57,462.026
			L696.57,462.026z"/>
	</g>
</g>
<g>
	<g>
		<path fill="#484F5E" d="M794.357,507.549c-2.185,0-3.961-1.776-3.961-3.961V351.74c0-2.186,1.776-3.961,3.961-3.961h88.108
			c2.185,0,3.96,1.775,3.96,3.961v151.848c0,2.185-1.775,3.961-3.96,3.961H794.357z"/>
		<rect x="797.781" y="362.165" fill="#FFFFFF" width="81.508" height="124.819"/>
		<path fill="#808080" d="M882.467,347.602h-88.109c-2.281,0-4.138,1.856-4.138,4.14v151.848c0,2.282,1.855,4.139,4.138,4.139
			h88.109c2.282,0,4.139-1.855,4.139-4.139V351.74C886.604,349.458,884.749,347.602,882.467,347.602z M886.249,503.588
			c0,2.08-1.702,3.783-3.782,3.783h-88.108c-2.08,0-3.782-1.703-3.782-3.783V351.74c0-2.081,1.702-3.783,3.782-3.783h88.108
			c2.08,0,3.782,1.702,3.782,3.783V503.588z"/>
	</g>
</g>
<g>
	<g>
		<path fill="#FFFFFF" d="M838.421,495.252c0.001,0,0.001,0,0.003,0c0.016,0,0.032,0.005,0.048,0.021
			c0.283,0.281,0.565,0.567,0.851,0.853c0-0.12,0-0.242,0-0.364c0-0.037,0.031-0.068,0.069-0.068c0.153,0,0.307,0,0.46,0
			c0.038,0,0.071,0.031,0.071,0.068c0,0.213,0,0.425,0,0.641c0,0.104,0,0.21,0,0.316c0,0.007-0.001,0.012-0.001,0.016
			c0.006,0.005,0.018,0.015,0.031,0.028c0.292,0.293,0.583,0.587,0.875,0.881c0.044,0.045,0.013,0.121-0.049,0.121
			c-0.161,0-0.324,0-0.484,0c0,0.498,0,0.997,0,1.495c0,0.038-0.031,0.071-0.072,0.071c-0.501,0-0.956,0-1.459,0
			c-0.039,0-0.07-0.033-0.07-0.071c0-0.349,0-0.696,0-1.047c-0.148,0-0.395,0-0.542,0c0,0.351,0,0.698,0,1.047
			c0,0.038-0.032,0.071-0.071,0.071c-0.504,0-0.959,0-1.462,0c-0.038,0-0.069-0.033-0.069-0.071c0-0.498,0-0.997,0-1.495
			c-0.163,0-0.322,0-0.483,0c-0.062,0-0.095-0.076-0.05-0.121c0.785-0.792,1.57-1.58,2.356-2.369
			c0.015-0.018,0.031-0.021,0.047-0.021L838.421,495.252L838.421,495.252z M838.421,494.805l-0.086,0.022
			c-0.1,0.019-0.192,0.065-0.268,0.142l-1.185,1.19l-1.175,1.181c-0.144,0.144-0.185,0.356-0.106,0.545
			c0.077,0.188,0.259,0.31,0.461,0.31h0.056v1.065c0,0.275,0.225,0.501,0.499,0.501h1.462c0.132,0,0.252-0.052,0.342-0.135
			c0.09,0.083,0.209,0.135,0.343,0.135h1.459c0.276,0,0.501-0.226,0.501-0.501v-1.065h0.057c0.202,0,0.383-0.121,0.461-0.31
			c0.077-0.188,0.034-0.401-0.108-0.545l-0.779-0.785v-0.152v-0.641c0-0.275-0.226-0.5-0.5-0.5h-0.461
			c-0.093,0-0.18,0.025-0.255,0.07l-0.361-0.363c-0.068-0.069-0.156-0.119-0.251-0.138l-0.03-0.01h-0.013L838.421,494.805
			L838.421,494.805z"/>
	</g>
	<g>
		<g>
			<path fill="#FFFFFF" d="M860.871,498.395c-0.154,0-0.279-0.127-0.279-0.28v-0.363c0-0.882-0.717-1.601-1.599-1.601h-2.525
				c-0.881,0-1.599,0.719-1.599,1.601v0.363c0,0.153-0.125,0.28-0.28,0.28c-0.154,0-0.279-0.127-0.279-0.28v-0.363
				c0-1.192,0.969-2.161,2.158-2.161h2.525c1.189,0,2.159,0.969,2.159,2.161v0.363C861.152,498.268,861.026,498.395,860.871,498.395
				L860.871,498.395z"/>
		</g>
		<g>
			<path fill="#FFFFFF" d="M857.885,499.246c-0.681,0-1.232-0.555-1.232-1.235c0-0.682,0.553-1.234,1.232-1.234
				s1.232,0.554,1.232,1.234S858.562,499.246,857.885,499.246L857.885,499.246z M857.885,497.192c-0.449,0-0.817,0.365-0.817,0.817
				c0,0.451,0.368,0.818,0.817,0.818s0.815-0.367,0.815-0.818S858.334,497.192,857.885,497.192L857.885,497.192z"/>
			<path fill="#FFFFFF" d="M857.885,498.625c-0.102,0-0.185-0.082-0.185-0.183v-0.862c0-0.103,0.083-0.186,0.185-0.186
				s0.186,0.083,0.186,0.186v0.862C858.069,498.543,857.985,498.625,857.885,498.625L857.885,498.625z"/>
		</g>
	</g>
	<g>
		<path fill="#FFFFFF" d="M822.232,498.393c-0.154,0-0.279-0.125-0.279-0.279v-0.362c0-0.884-0.717-1.602-1.6-1.602h-2.523
			c-0.882,0-1.6,0.718-1.6,1.602v0.362c0,0.154-0.125,0.279-0.279,0.279s-0.28-0.125-0.28-0.279v-0.362
			c0-1.192,0.97-2.163,2.159-2.163h2.523c1.19,0,2.159,0.971,2.159,2.163v0.362C822.514,498.268,822.389,498.393,822.232,498.393
			L822.232,498.393z"/>
	</g>
</g>
<g>
	<g>
		<g>
			<path fill="#484F5E" d="M57.911,462.11c-2.144,0-4.167-0.844-5.695-2.373c-1.53-1.528-2.373-3.55-2.373-5.692V253.22
				c0-2.142,0.843-4.164,2.373-5.694c1.529-1.528,3.551-2.371,5.694-2.371h317.63c2.142,0,4.164,0.842,5.694,2.371
				c1.528,1.531,2.372,3.553,2.372,5.694v200.825c0,2.144-0.843,4.164-2.372,5.692c-1.529,1.529-3.553,2.373-5.694,2.373H57.911z"/>
			<path fill="#808080" d="M381.36,247.399c-1.564-1.562-3.632-2.423-5.82-2.423H57.911c-2.19,0-4.256,0.86-5.819,2.423
				c-1.564,1.564-2.425,3.631-2.425,5.82l-0.001,200.825c0,2.189,0.861,4.256,2.425,5.818c1.562,1.562,3.629,2.425,5.82,2.425
				H375.54c2.19,0,4.257-0.861,5.82-2.425c1.562-1.562,2.424-3.628,2.424-5.818V253.22
				C383.784,251.031,382.923,248.964,381.36,247.399z M383.429,454.045c0,2.094-0.823,4.072-2.319,5.566
				c-1.497,1.499-3.475,2.32-5.568,2.32H57.911c-2.095,0-4.073-0.821-5.569-2.32c-1.496-1.494-2.321-3.474-2.321-5.566V253.22
				c0-2.095,0.824-4.072,2.321-5.569c1.497-1.496,3.473-2.318,5.568-2.318h317.63c2.094,0,4.071,0.822,5.568,2.318
				c1.495,1.497,2.319,3.475,2.319,5.569L383.429,454.045L383.429,454.045z"/>
		</g>
	</g>
</g>
<polygon fill="#FFFFFF" points="203.271,259.581 178.545,259.581 64.4,259.581 64.4,285.745 64.4,380.549 64.4,460.291 
	369.331,460.291 369.331,380.549 369.331,285.745 369.331,259.581 "/>
<path fill="#E8EAEF" d="M424.29,454.957c-0.017-1.026-3.953-1.64-4.983-1.64h-14.981h-2.562H14.144
	c-1.032,0-4.984,0.614-4.984,1.646v14.693h0.005c5.411,6.759,9.839,5.317,12.673,5.66h30.479l4.554-0.001l0,0l159.899-0.015
	l164.361,0.016h30.479c2.835-0.343,7.265,1.1,12.679-5.667h-0.044c0.029-0.183,0.041-0.343,0.044-0.541V454.96L424.29,454.957z"/>
<g>
	<g>
		<path fill="#626262" d="M23.142,464.765c0,0.315-0.255,0.571-0.571,0.571h-0.095c-0.315,0-0.571-0.256-0.571-0.571v-5.021
			c0-0.315,0.256-0.57,0.571-0.57h0.095c0.315,0,0.571,0.255,0.571,0.57V464.765z"/>
	</g>
	<g>
		<path fill="#626262" d="M25.964,464.765c0,0.315-0.256,0.571-0.572,0.571h-0.095c-0.315,0-0.571-0.256-0.571-0.571v-5.021
			c0-0.315,0.256-0.57,0.571-0.57h0.095c0.316,0,0.572,0.255,0.572,0.57V464.765z"/>
	</g>
	<g>
		<path fill="#626262" d="M28.787,464.765c0,0.315-0.256,0.571-0.572,0.571H28.12c-0.316,0-0.571-0.256-0.571-0.571v-5.021
			c0-0.315,0.255-0.57,0.571-0.57h0.095c0.316,0,0.572,0.255,0.572,0.57V464.765z"/>
	</g>
	<g>
		<path fill="#626262" d="M31.608,464.765c0,0.315-0.256,0.571-0.571,0.571h-0.095c-0.315,0-0.571-0.256-0.571-0.571v-5.021
			c0-0.315,0.256-0.57,0.571-0.57h0.095c0.315,0,0.571,0.255,0.571,0.57V464.765z"/>
	</g>
</g>
<g>
	<g>
		<g>
			<path fill="#626262" d="M394.926,462.273c0,0.269-0.183,0.492-0.401,0.492h-12.23c-0.222,0-0.402-0.225-0.402-0.492
				c0-0.272,0.181-0.493,0.402-0.493h12.23C394.743,461.78,394.926,462.001,394.926,462.273z"/>
		</g>
	</g>
	<g>
		<g>
			<path fill="#626262" d="M407.244,460.474c0.974,0,1.763,0.789,1.763,1.764c0,0.974-0.79,1.763-1.763,1.763
				s-1.764-0.789-1.764-1.763C405.48,461.263,406.271,460.474,407.244,460.474z"/>
		</g>
		<g>
			<path fill="#626262" d="M402.028,460.474c0.974,0,1.762,0.789,1.762,1.764c0,0.974-0.789,1.763-1.762,1.763
				c-0.974,0-1.764-0.789-1.764-1.763C400.265,461.263,401.055,460.474,402.028,460.474z"/>
		</g>
	</g>
</g>
</svg>
