<?xml version="1.0" encoding="utf-8"?>
<!-- Generator: Adobe Illustrator 16.0.4, SVG Export Plug-In . SVG Version: 6.00 Build 0)  -->
<!DOCTYPE svg PUBLIC "-//W3C//DTD SVG 1.1//EN" "http://www.w3.org/Graphics/SVG/1.1/DTD/svg11.dtd">
<svg version="1.1" id="Layer_1" xmlns="http://www.w3.org/2000/svg" xmlns:xlink="http://www.w3.org/1999/xlink" x="0px" y="0px"
	 width="432px" height="432px" viewBox="0 0 432 432" enable-background="new 0 0 432 432" xml:space="preserve">
<path fill="#D81B5C" d="M192.014,269.176c-1.587,0-3.186-0.035-4.806-0.106c-24.083-1.05-46.613-13.697-60.27-33.83
	c-13.127-19.353-16.39-42.704-8.95-64.067c2.056-5.905,8.511-9.028,14.418-6.969c5.907,2.057,9.026,8.512,6.969,14.418
	c-5.062,14.533-2.764,30.536,6.305,43.905c9.657,14.236,25.55,23.177,42.513,23.917c30.446,1.314,51.942-13.007,54.742-36.507
	c2.588-21.699-8.449-35.933-39.362-50.767c-31.986-15.35-38.807-43.411-31.377-64.41c7.448-21.037,29.462-34.487,53.545-32.727
	c21.034,1.541,44.195,23.436,43.706,50.433c-0.112,6.254-5.37,11.222-11.527,11.117c-6.253-0.113-11.229-5.274-11.116-11.526
	c0.266-14.686-13.6-26.769-22.719-27.436c-13.907-1.027-26.487,6.251-30.538,17.695c-3.756,10.615-0.818,26.528,19.825,36.435
	c26.801,12.861,56.938,32.879,52.052,73.865C261.344,246.877,232.098,269.174,192.014,269.176z"/>
<path fill="#D81B5C" d="M372.04,306.866c0.064-0.428,0.102-0.85,0.115-1.274c0.009-0.252,0.018-0.502,0.009-0.756
	c-0.014-0.456-0.066-0.903-0.135-1.352c-0.035-0.226-0.056-0.451-0.104-0.675c-0.123-0.564-0.292-1.112-0.499-1.65
	c-0.038-0.1-0.056-0.201-0.096-0.298c-0.259-0.622-0.584-1.215-0.951-1.783c-0.114-0.177-0.252-0.341-0.378-0.511
	c-0.294-0.404-0.606-0.792-0.953-1.154c-0.077-0.082-0.131-0.175-0.21-0.255c-0.096-0.095-0.21-0.159-0.308-0.25
	c-0.345-0.315-0.712-0.61-1.1-0.887c-0.21-0.15-0.415-0.305-0.635-0.438c-0.1-0.062-0.186-0.142-0.287-0.199
	c-0.303-0.175-0.624-0.294-0.938-0.438c-0.215-0.098-0.418-0.215-0.638-0.299c-0.637-0.246-1.287-0.44-1.946-0.566
	c-0.037-0.007-0.075-0.004-0.112-0.011c-0.631-0.113-1.266-0.168-1.897-0.173c-0.226-0.002-0.445,0.024-0.668,0.035
	c-0.449,0.024-0.894,0.06-1.336,0.135c-0.262,0.047-0.516,0.108-0.774,0.171c-0.404,0.097-0.799,0.217-1.189,0.36
	c-0.257,0.093-0.512,0.188-0.762,0.301c-0.404,0.182-0.791,0.396-1.174,0.626c-0.208,0.124-0.423,0.234-0.624,0.374
	c-0.572,0.396-1.121,0.834-1.625,1.342c-15.704,15.867-34.26,27.943-55.158,35.893c-34.945,13.29-73.505,13.549-108.568,0.734
	c-34.719-12.693-63.808-37.299-81.908-69.285l0,0c-3.875-6.847-7.267-14.073-10.083-21.478
	c-30.473-80.115,9.914-170.086,90.028-200.559c49.288-18.751,104.199-11.385,146.892,19.693c5.054,3.68,12.138,2.567,15.818-2.49
	c3.683-5.057,2.565-12.139-2.49-15.821C298.454,8.332,235.548-0.099,179.084,21.379C87.298,56.292,41.026,159.371,75.939,251.157
	c3.223,8.471,7.105,16.74,11.54,24.581l0,0c0.001,0.002,0.001,0.002,0.001,0.002c20.746,36.664,54.073,64.861,93.842,79.398
	c2.493,0.911,5.002,1.763,7.523,2.56c0.63,0.198,1.27,0.364,1.901,0.555c1.896,0.577,3.792,1.147,5.701,1.659
	c0.802,0.214,1.61,0.387,2.414,0.59c1.749,0.442,3.496,0.89,5.253,1.276c0.901,0.197,1.809,0.354,2.713,0.54
	c1.667,0.338,3.333,0.688,5.007,0.979c0.978,0.17,1.96,0.299,2.94,0.451c1.604,0.252,3.208,0.516,4.818,0.724
	c1.046,0.135,2.097,0.228,3.146,0.345c1.548,0.17,3.094,0.354,4.645,0.484c1.099,0.093,2.198,0.144,3.3,0.217
	c1.502,0.1,3.006,0.21,4.512,0.27c1.142,0.047,2.285,0.051,3.426,0.075c1.254,0.026,2.506,0.082,3.76,0.082
	c0.206,0,0.412-0.014,0.617-0.014c1.372-0.004,2.74-0.057,4.109-0.093c1.285-0.035,2.57-0.051,3.854-0.112
	c1.401-0.066,2.802-0.184,4.202-0.285c1.252-0.089,2.503-0.159,3.753-0.274c1.438-0.135,2.873-0.321,4.309-0.489
	c1.205-0.144,2.415-0.261,3.618-0.429c1.484-0.206,2.964-0.467,4.443-0.71c1.15-0.188,2.305-0.352,3.452-0.564
	c1.54-0.283,3.07-0.626,4.604-0.951c1.079-0.229,2.165-0.431,3.242-0.679c1.616-0.376,3.223-0.81,4.828-1.229
	c0.986-0.259,1.979-0.486,2.961-0.761c1.771-0.495,3.53-1.053,5.289-1.605c0.807-0.253,1.623-0.476,2.428-0.741
	c2.557-0.841,5.101-1.74,7.629-2.703c2.687-1.021,5.327-2.123,7.946-3.265c0.801-0.349,1.59-0.714,2.384-1.072
	c1.898-0.86,3.778-1.752,5.641-2.676c0.78-0.388,1.565-0.768,2.34-1.166c2.479-1.276,4.937-2.592,7.35-3.981
	c0.042-0.023,0.086-0.046,0.128-0.07c-14.374,20.892-34.615,37.394-57.808,46.216c-60.545,23.02-115.559,9.533-154.929-37.988
	c-3.988-4.817-11.128-5.485-15.945-1.497c-4.816,3.989-5.485,11.129-1.496,15.944c31.135,37.583,71.87,57.049,116.759,57.049
	c20.524,0,41.921-4.069,63.662-12.339c43.219-16.44,77.729-55.263,90.063-101.323c0.042-0.155,0.049-0.312,0.084-0.467
	C371.956,307.401,372,307.136,372.04,306.866z"/>
<path fill="#D81B5C" d="M248.684,317.157c-15.166,0-30.32-2.635-44.003-8.022c-5.819-2.291-8.68-8.864-6.389-14.684
	c2.289-5.821,8.859-8.689,14.685-6.39c26.951,10.607,62.241,7.85,85.825-6.699c23.457-14.471,39.165-38.924,44.229-68.85
	c4.923-29.09-1.004-59.957-16.263-84.688c-7.562-12.257-17.294-22.662-28.923-30.926c-5.098-3.623-6.294-10.692-2.672-15.791
	c3.625-5.098,10.696-6.293,15.792-2.671c14.113,10.03,25.915,22.645,35.078,37.497c18.104,29.344,25.146,65.924,19.316,100.359
	c-6.168,36.446-25.582,66.402-54.667,84.343C293.044,311.528,270.852,317.154,248.684,317.157z"/>
</svg>
